# xmcd
#
# Track frame offsets:
#  150
#  19731
#  31519
#  42544
#  52054
#  69539
#  81221
#  94376
#  114835
#  127337
#  146566
#  167501
#
# Disc length: 2485 seconds
#
# Revision: 0
# Processed by: cddbd v1.5.1PL2 Copyright (c) Steve Scherf et al.
# Submitted via: Collectorz.com_Music_Collector 6.11
#
DISCID=a309b30c
DTITLE=Various Artist - Dutch Country Awards 2006 [CD1)
DYEAR=2006
DGENRE=Country general
TTITLE0=Mooy, Sandra - Burn
TTITLE1=4 Wheel Drive - Wreck Of The Old '97
TTITLE2=By Coincidence - Only A Dream
TTITLE3=The Starbombers, Annita and - The Honeymoon's Over
TTITLE4=Steneker, Ben and Carmen - Like Father, Like Daughter
TTITLE5=van Es, Joost - Anita's Waltz
TTITLE6=Black Hills Country Band, The - Walking Through The Rain
TTITLE7=Hermans, Ruud - Color Of Time
TTITLE8=Blue Grass Boogiemen, The - I Wish I Had A Nickel
TTITLE9=Rutting, Thecla - The Streets Of Heaven
TTITLE10=Col. Hammond's Four - The Locker Of My Life
TTITLE11=Cash on Delivery - A.K.A. From A Friend
EXTD=
EXTT0=
EXTT1=
EXTT2=
EXTT3=
EXTT4=
EXTT5=
EXTT6=
EXTT7=
EXTT8=
EXTT9=
EXTT10=
EXTT11=
PLAYORDER=
